<?xml version="1.0" encoding="utf-8"?>
<!-- Generator: Adobe Illustrator 21.1.0, SVG Export Plug-In . SVG Version: 6.00 Build 0)  -->
<svg version="1.1" id="Layer_1" xmlns="http://www.w3.org/2000/svg" xmlns:xlink="http://www.w3.org/1999/xlink" x="0px" y="0px"
	 viewBox="0 0 435 320" style="enable-background:new 0 0 435 320;" xml:space="preserve">
<style type="text/css">
	.st0{fill:#193651;}
	.st1{fill:#FFFFFF;}
	.st2{fill:#F16051;}
	.st3{font-family:'Lato-Regular';}
	.st4{font-size:20px;}
	.st5{font-size:16px;}
	.st6{fill:#FFB24D;}
	.st7{clip-path:url(#SVGID_2_);}
	.st8{clip-path:url(#SVGID_4_);}
	.st9{fill:#2EA2DB;}
	.st10{clip-path:url(#SVGID_6_);}
	.st11{fill:#FDBF5E;}
	.st12{clip-path:url(#SVGID_8_);}
	.st13{font-family:'Lato-Bold';}
	.st14{font-size:14px;}
	.st15{font-size:12px;}
</style>
<g>
	<rect x="2.3" y="37.5" class="st0" width="430.3" height="245"/>
	<g>
		<rect x="8" y="43.4" class="st1" width="419.3" height="233.1"/>
		<rect x="22.3" y="160.8" class="st2" width="288.4" height="6.9"/>
		<rect x="22.3" y="140.2" class="st2" width="386" height="6.9"/>
		<g>
			<path class="st2" d="M47.2,75.1c0,0.2-0.2,0.4-0.4,0.4H30.1c-0.2,0-0.4-0.2-0.4-0.4V63.9c0-0.2,0.2-0.4,0.4-0.4h16.7
				c0.2,0,0.4,0.2,0.4,0.4V75.1z"/>
			<path class="st2" d="M40.5,61.2h-4c-0.7,0-1.2,0.5-1.2,1.2V64c0,0.2,0.2,0.4,0.4,0.4h5.6c0.2,0,0.4-0.2,0.4-0.4v-1.6
				C41.7,61.8,41.1,61.2,40.5,61.2z M40.9,63.6h-4.8v-1.2c0-0.2,0.2-0.4,0.4-0.4h4c0.2,0,0.4,0.2,0.4,0.4L40.9,63.6L40.9,63.6z"/>
			<path class="st1" d="M47.5,67.9c-0.1-0.2-0.3-0.3-0.5-0.3l-6,1.6c-1.7,0.4-3.4,0.4-5.1,0l-6-1.6c-0.2-0.1-0.4,0.1-0.5,0.3
				c-0.1,0.2,0.1,0.4,0.3,0.5l6,1.6c0.9,0.2,1.8,0.4,2.8,0.4c0.9,0,1.9-0.1,2.8-0.4l6-1.6C47.4,68.3,47.6,68.1,47.5,67.9z"/>
			<path class="st1" d="M38.5,65.9c-0.9,0-1.6,0.7-1.6,1.6c0,0.9,0.7,1.6,1.6,1.6s1.6-0.7,1.6-1.6C40.1,66.6,39.4,65.9,38.5,65.9z
				 M38.5,68.3c-0.4,0-0.8-0.4-0.8-0.8c0-0.4,0.4-0.8,0.8-0.8c0.4,0,0.8,0.4,0.8,0.8C39.3,68,38.9,68.3,38.5,68.3z"/>
		</g>
		<g>
			<path class="st2" d="M38.5,107c0.7-1.2,1.5-2.2,2-3.3c1.3-2.6,2.8-5.1,3.8-7.8c1.3-3.6-1.5-7.5-5.3-7.8c-4.5-0.4-7.9,4-6.3,8.2
				c1.1,2.7,2.6,5.3,4,7.9C37.3,105.2,37.9,106,38.5,107"/>
			<path class="st1" d="M38.5,90.3c2.3,0,4,1.8,4,4c0,2.2-1.8,4-4,4c-2.2,0-4-1.8-4-4.1C34.5,92,36.3,90.3,38.5,90.3 M35.6,94.3
				c0,1.6,1.3,2.9,2.9,2.9c1.7,0,3-1.3,2.9-3c0-1.6-1.4-2.9-3-2.9C36.9,91.3,35.6,92.6,35.6,94.3"/>
		</g>
		<text transform="matrix(1 0 0 1 66.9055 78.9635)" class="st0 st3 st4">UI/UX Designers wanted</text>
		<text transform="matrix(1 0 0 1 66.9055 105.1368)" class="st0 st3 st5">Kormangala, Bangalore</text>
		<polygon class="st6" points="38.2,210.8 24.4,197 38.2,183.1 52,197 		"/>
		<rect x="7.7" y="196.5" class="st6" width="419.6" height="80.1"/>
		<g>
			<circle class="st1" cx="38.2" cy="236.5" r="20"/>
			<g>
				<defs>
					<circle id="SVGID_1_" cx="38.2" cy="236.5" r="20"/>
				</defs>
				<clipPath id="SVGID_2_">
					<use xlink:href="#SVGID_1_"  style="overflow:visible;"/>
				</clipPath>
				<g class="st7">
					<path class="st2" d="M38.5,258.5c6.4,0,12-3.2,15.3-8.2c-3.3-4.8-8.9-8-15.3-8s-12,3.2-15.3,8C26.3,255.3,32,258.5,38.5,258.5z
						"/>
					<circle class="st2" cx="38.5" cy="233.4" r="5.8"/>
				</g>
			</g>
		</g>
		<g>
			<circle class="st1" cx="358" cy="236.2" r="13.5"/>
			<g>
				<defs>
					<circle id="SVGID_3_" cx="358" cy="236.2" r="13.5"/>
				</defs>
				<clipPath id="SVGID_4_">
					<use xlink:href="#SVGID_3_"  style="overflow:visible;"/>
				</clipPath>
				<g class="st8">
					<path class="st9" d="M358.2,251.1c4.3,0,8.1-2.2,10.4-5.5c-2.3-3.3-6-5.4-10.4-5.4s-8.1,2.2-10.4,5.4
						C350,249,353.8,251.1,358.2,251.1z"/>
					<circle class="st9" cx="358.2" cy="234.1" r="3.9"/>
				</g>
				<use xlink:href="#SVGID_3_"  style="overflow:visible;fill:none;stroke:#4D4D4D;stroke-width:0.8462;stroke-miterlimit:10;"/>
			</g>
		</g>
		<g>
			<circle class="st1" cx="377.5" cy="236.2" r="13.5"/>
			<g>
				<defs>
					<circle id="SVGID_5_" cx="377.5" cy="236.2" r="13.5"/>
				</defs>
				<clipPath id="SVGID_6_">
					<use xlink:href="#SVGID_5_"  style="overflow:visible;"/>
				</clipPath>
				<g class="st10">
					<path class="st11" d="M377.6,251.1c4.3,0,8.1-2.2,10.4-5.5c-2.3-3.3-6-5.4-10.4-5.4c-4.3,0-8.1,2.2-10.4,5.4
						C369.4,249,373.2,251.1,377.6,251.1z"/>
					<circle class="st11" cx="377.6" cy="234.1" r="3.9"/>
				</g>
				<use xlink:href="#SVGID_5_"  style="overflow:visible;fill:none;stroke:#4D4D4D;stroke-width:0.8462;stroke-miterlimit:10;"/>
			</g>
		</g>
		<g>
			<circle class="st1" cx="396.9" cy="236.2" r="13.5"/>
			<g>
				<defs>
					<circle id="SVGID_7_" cx="396.9" cy="236.2" r="13.5"/>
				</defs>
				<clipPath id="SVGID_8_">
					<use xlink:href="#SVGID_7_"  style="overflow:visible;"/>
				</clipPath>
				<g class="st12">
					<path class="st2" d="M397.1,251.1c4.3,0,8.1-2.2,10.4-5.5c-2.3-3.3-6-5.4-10.4-5.4c-4.3,0-8.1,2.2-10.4,5.4
						C388.9,249,392.7,251.1,397.1,251.1z"/>
					<circle class="st2" cx="397.1" cy="234.1" r="3.9"/>
				</g>
				<use xlink:href="#SVGID_7_"  style="overflow:visible;fill:none;stroke:#4D4D4D;stroke-width:0.8462;stroke-miterlimit:10;"/>
			</g>
		</g>
		<text transform="matrix(1 0 0 1 66.3986 231.8346)"><tspan x="0" y="0" class="st1 st13 st5">Sachin Teldulkar  </tspan><tspan x="125.2" y="0" class="st1 st3 st14">2nd</tspan></text>
		<text transform="matrix(1 0 0 1 66.3986 248.9411)" class="st1 st3 st15">General manager at flipkart</text>
	</g>
</g>
</svg>
