<?xml version="1.0" encoding="utf-8"?>
<!-- Generator: Adobe Illustrator 21.1.0, SVG Export Plug-In . SVG Version: 6.00 Build 0)  -->
<svg version="1.1" id="Layer_1" xmlns="http://www.w3.org/2000/svg" xmlns:xlink="http://www.w3.org/1999/xlink" x="0px" y="0px"
	 viewBox="0 0 200 280" style="enable-background:new 0 0 200 280;" xml:space="preserve">
<style type="text/css">
	.st0{fill:#39B54A;}
	.st1{fill:#FFFFFF;}
	.st2{font-family:'Lato-Regular';}
	.st3{font-size:15.3096px;}
	.st4{fill:none;stroke:#193651;stroke-width:6;stroke-linecap:round;stroke-linejoin:round;stroke-miterlimit:10;}
</style>
<g>
	<g>
		<path class="st0" d="M121.2,138.3H60.2v20.4h64.9C121.2,154.9,118.7,143.4,121.2,138.3z"/>
		<text transform="matrix(1 0 0 1 77.6787 153.3046)" class="st1 st2 st3">INSTA</text>
	</g>
	<g>
		<path class="st4" d="M161.5,131.9c0.2-1.8,0.5-3.7,0.5-5.5c0-27.7,0.3-55.3-0.2-83c-0.1-6.7,0.5-13.3,0.2-20
			c-0.3-8.4-6.8-15-15.1-15c-30,0-60,0.4-90-0.2c-9.6-0.2-17.7,7.3-17.6,17.7c0.2,22.5,0.1,45,0.1,67.5c0,17.2,0,34.3,0,51.5
			c0,10-0.1,20,0,30c0.1,10.3,0.2,20.7,0.5,31c0.2,5-0.8,10.3-0.1,15.5c1.2,8.4,8,13.7,16.5,13.6c20.5-0.2,41-0.1,61.5-0.1
			c2.2,0,4.4,0.1,6.5-1"/>
		<path class="st4" d="M129,241.9c-0.3-1.3,0.6-2.8-0.5-4c-7.2-7.7-5.9-17.3-5.4-26.5c0.5-8.7,6.7-14.8,11.4-21.5
			c1.9-2.7,4.3-5,6.4-7.5c3.5-4.3,3.2-9.3-0.5-13.5c-2.4-2.8-5.3-4.8-8.5-6.5c-6.5-3.4-10.5-8.2-10.6-16
			c-0.1-9.1,4.3-11.6,11.6-13.9c5-1.6,10.3-1.4,15.5-1.1c8.6,0.5,17.1,2,25,5.5c18.7,8.5,23.2,21.5,20.4,39.4
			c-2.1,13.2-4.2,26.5-7.8,39.5c-5.7,20.9-15.3,39.3-31.5,54c-1,0.9-1.9,1-3,1"/>
		<path class="st4" d="M160.5,36.9c-39.8,0-79.7,0-119.5,0"/>
		<path class="st4" d="M122.5,206.4c-2-0.2-4-0.5-6-0.5c-25.2,0-50.3,0-75.5,0"/>
		<path class="st4" d="M38,120.4c-5.5,0.6-11-1-16.5,1c-9.6,3.5-13.1,14.3-8.1,23.1c3.2,5.6,7.4,7.1,13.2,6.9c3.8-0.1,7.7,0,11.5,0"
			/>
		<path class="st4" d="M38,181.9c-4,0-8,0-12,0c-7.9,0-11.5,2.6-14,10c-3.7,11.1,3.6,21.6,15,21c3.7-0.2,7.3,0,11,0"/>
		<path class="st4" d="M16.5,150.4c-1.2,1-2.3,2.1-3.5,3c-9.8,7.6-10.2,17.9-1,26c1.5,1.3,3,2.7,4.5,4"/>
		<path class="st4" d="M53,235.9c-0.2,11.2,2.6,21.7,8.1,31.5c0.9,1.5,1.5,2.9,1.4,4.5"/>
	</g>
</g>
</svg>
