<?xml version="1.0" encoding="utf-8"?>
<!-- Generator: Adobe Illustrator 21.1.0, SVG Export Plug-In . SVG Version: 6.00 Build 0)  -->
<svg version="1.1" id="Layer_1" xmlns="http://www.w3.org/2000/svg" xmlns:xlink="http://www.w3.org/1999/xlink" x="0px" y="0px"
	 viewBox="0 0 435 320" style="enable-background:new 0 0 435 320;" xml:space="preserve">
<style type="text/css">
	.st0{fill:#FDBF5E;}
	.st1{fill:#2EA2DB;}
	.st2{fill:#F16051;}
	.st3{fill:#193651;}
	.st4{fill:#193651;stroke:#193651;stroke-width:4.3622;stroke-miterlimit:10;}
	.st5{fill:#FFFFFF;}
	.st6{fill:#193651;stroke:#193651;stroke-width:0.3312;stroke-miterlimit:10;}
</style>
<g>
	<g>
		<g>
			<g>
				<g>
					<path class="st0" d="M122.2,185c0-9.4,8.3-9.4,10.1-11.9l0.2-1.1c-2.6-1.3-4.4-4.5-4.4-8.1c0-4.9,3.2-8.8,7.1-8.8
						c3.1,0,5.7,2.4,6.6,5.9c-3.9,1.2-6.8,5.5-6.8,10.5c0,3.5,1.4,6.6,3.6,8.7c-0.4,0.2-0.8,0.4-1.1,0.5c-1.8,0.8-4.3,2-6.1,4.4
						H122.2L122.2,185z"/>
					<path class="st1" d="M144.2,192.6L144.2,192.6l-0.2,0h-12.9c0-9.4,8.3-9.4,10.1-11.9l0.2-1.1c-2.6-1.3-4.4-4.5-4.4-8.1
						c0-4.9,3.2-8.8,7.1-8.8s7.1,3.9,7.1,8.8c0,3.7-1.8,6.8-4.3,8.1l0.2,1.3c2,2.3,10,2.5,10,11.8H144.2L144.2,192.6z"/>
					<path class="st2" d="M156.9,185L156.9,185L156.9,185c-1.8-2.4-4.3-3.5-6.1-4.4c-0.4-0.2-0.8-0.4-1.1-0.5c2.2-2,3.6-5.2,3.6-8.7
						c0-5-2.9-9.3-6.8-10.5c1-3.4,3.6-5.9,6.6-5.9c3.9,0,7.1,3.9,7.1,8.8c0,3.7-1.8,6.8-4.3,8.1l0.2,1.3c2,2.3,10,2.5,10,11.8H156.9
						L156.9,185z"/>
				</g>
				<g>
					<path class="st2" d="M104.7,273.4c8.9,0,16.7-4.5,21.4-11.4c-4.7-6.8-12.5-11.2-21.4-11.2s-16.7,4.5-21.4,11.2
						C87.8,268.9,95.6,273.4,104.7,273.4z"/>
					<circle class="st2" cx="104.7" cy="238.2" r="8"/>
				</g>
				<g>
					<path class="st1" d="M183.9,273.4c8.9,0,16.7-4.5,21.4-11.4c-4.7-6.8-12.5-11.2-21.4-11.2c-8.9,0-16.7,4.5-21.4,11.2
						C167.2,268.9,175,273.4,183.9,273.4z"/>
					<circle class="st1" cx="183.9" cy="238.2" r="8"/>
				</g>
				<path class="st3" d="M183.9,219.4c-7.4,0-14,3-19.1,7.4l-18.4-10.6v-20.1c14.4-1.1,26-13.1,26-28c0-15.7-12.7-28.2-28.2-28.2
					s-28.2,12.5-28.2,28.2c0,14.8,11.4,26.9,26,28v20.1l-18.4,10.6c-5.1-4.7-11.7-7.4-19.1-7.4c-15.7,0-28.2,12.5-28.2,28
					c0,15.7,12.5,28.2,28.2,28.2c15.5,0,28.2-12.5,28.2-28.2c0-6.6-2.3-12.5-6.1-17.4l17.8-10.2l17.8,10.2
					c-3.8,4.9-6.1,10.8-6.1,17.4c0,15.5,12.5,28.2,28.2,28.2c15.3,0,27.8-12.5,27.8-28.2C212.1,231.9,199.6,219.4,183.9,219.4z
					 M104.7,271.3c-13.3,0-23.9-10.6-23.9-23.9c0-13.1,10.6-23.9,23.9-23.9c13.1,0,23.9,10.6,23.9,23.9
					C128.4,260.7,117.9,271.3,104.7,271.3z M120.4,168.1c0-13.3,10.8-23.9,23.9-23.9c13.1,0,23.9,10.6,23.9,23.9
					c0,13.1-10.6,23.9-23.9,23.9C131.2,191.8,120.4,181.2,120.4,168.1z M183.9,271.3c-13.1,0-23.9-10.6-23.9-23.9
					c0-13.1,10.6-23.9,23.9-23.9c13.1,0,23.9,10.6,23.9,23.9S197.3,271.3,183.9,271.3z"/>
			</g>
			<g>
				<g>
					<path class="st0" d="M286.4,107.8c8.9,0,16.7-4.5,21.4-11.4c-4.7-6.8-12.5-11.2-21.4-11.2c-8.9,0-16.7,4.5-21.4,11.2
						C269.7,103.4,277.5,107.8,286.4,107.8z"/>
					<circle class="st0" cx="286.4" cy="72.6" r="8"/>
				</g>
				<g>
					<path class="st2" d="M246.8,187.2c8.9,0,16.7-4.5,21.4-11.4c-4.7-6.8-12.5-11.2-21.4-11.2c-8.9,0-16.7,4.5-21.4,11.2
						C229.9,182.8,237.7,187.2,246.8,187.2z"/>
					<circle class="st2" cx="246.8" cy="152.1" r="8"/>
				</g>
				<g>
					<path class="st1" d="M326,187.2c8.9,0,16.7-4.5,21.4-11.4c-4.7-6.8-12.5-11.2-21.4-11.2c-8.9,0-16.7,4.5-21.4,11.2
						C309.3,182.8,317.1,187.2,326,187.2z"/>
					<circle class="st1" cx="326" cy="152.1" r="8"/>
				</g>
				<path class="st3" d="M326,133.2c-7.4,0-14,3-19.1,7.4L288.5,130v-20.1c14.4-1.1,26-13.1,26-28c0-15.7-12.7-28.2-28.2-28.2
					c-15.5,0-28.2,12.5-28.2,28.2c0,14.8,11.4,26.9,26,28V130l-18.4,10.6c-5.1-4.7-11.7-7.4-19.1-7.4c-15.7,0-28.2,12.5-28.2,28
					c0,15.7,12.5,28.2,28.2,28.2c15.5,0,28.2-12.5,28.2-28.2c0-6.6-2.3-12.5-6.1-17.4l17.8-10.2l17.8,10.2
					c-3.8,4.9-6.1,10.8-6.1,17.4c0,15.5,12.5,28.2,28.2,28.2c15.3,0,27.8-12.5,27.8-28.2C354.2,145.7,341.7,133.2,326,133.2z
					 M246.8,185.1c-13.3,0-23.9-10.6-23.9-23.9c0-13.1,10.6-23.9,23.9-23.9c13.1,0,23.9,10.6,23.9,23.9
					C270.5,174.5,259.9,185.1,246.8,185.1z M262.5,82c0-13.3,10.8-23.9,23.9-23.9s23.9,10.6,23.9,23.9c0,13.1-10.6,23.9-23.9,23.9
					C273.3,105.7,262.5,95.1,262.5,82z M326,185.1c-13.1,0-23.9-10.6-23.9-23.9c0-13.1,10.6-23.9,23.9-23.9
					c13.1,0,23.9,10.6,23.9,23.9C350,174.5,339.4,185.1,326,185.1z"/>
			</g>
			<line class="st4" x1="238.2" y1="183.4" x2="196.9" y2="224.7"/>
		</g>
		<g>
			<g>
				<path class="st1" d="M182.1,102.1c8.9,0,16.7-4.5,21.4-11.4c-4.7-6.8-12.5-11.2-21.4-11.2c-8.9,0-16.7,4.5-21.4,11.2
					C165.4,97.7,173.3,102.1,182.1,102.1z"/>
				<circle class="st1" cx="182.1" cy="67" r="8"/>
			</g>
			<path class="st3" d="M182.1,48.1c-7.4,0-13.9,3-19,7.4l-4.7,6.3c-2.5,4.2-4,9-4,14.3c0,15.5,12.5,28.2,28.2,28.2
				c15.3,0,27.8-12.5,27.8-28.2C210.3,60.6,197.8,48.1,182.1,48.1z M182.1,100c-13.1,0-23.9-10.6-23.9-23.9
				c0-13.1,10.6-23.9,23.9-23.9c13.1,0,23.9,10.6,23.9,23.9C206.1,89.4,195.5,100,182.1,100z"/>
		</g>
		<line class="st4" x1="231.2" y1="141.4" x2="201.2" y2="94.6"/>
		<line class="st4" x1="286.5" y1="229.7" x2="258.2" y2="184.6"/>
		<g>
			<circle class="st3" cx="201.4" cy="32.5" r="15"/>
			<circle class="st5" cx="201.4" cy="32.5" r="13.8"/>
			<g>
				<path class="st6" d="M207.3,28.6h-11.9c-0.5,0-0.8,0.4-0.8,0.8v7.9c0,0.5,0.4,0.8,0.8,0.8h11.9c0.5,0,0.8-0.4,0.8-0.8v-7.9
					C208.2,28.9,207.8,28.6,207.3,28.6z M207.6,37.3c0,0.2-0.1,0.3-0.3,0.3h-11.9c-0.2,0-0.3-0.1-0.3-0.3v-7.9
					c0-0.2,0.1-0.3,0.3-0.3h11.9c0.2,0,0.3,0.1,0.3,0.3V37.3z"/>
				<path class="st6" d="M202.8,26.9H200c-0.5,0-0.8,0.4-0.8,0.8v1.1c0,0.2,0.1,0.3,0.3,0.3h4c0.2,0,0.3-0.1,0.3-0.3v-1.1
					C203.7,27.2,203.3,26.9,202.8,26.9z M203.1,28.6h-3.4v-0.8c0-0.2,0.1-0.3,0.3-0.3h2.8c0.2,0,0.3,0.1,0.3,0.3L203.1,28.6
					L203.1,28.6z"/>
				<path class="st6" d="M208.2,32.2c0-0.2-0.2-0.2-0.3-0.2l-4.5,1.2c-1.3,0.3-2.6,0.3-3.9,0L195,32c-0.1,0-0.3,0.1-0.3,0.2
					c0,0.2,0.1,0.3,0.2,0.3l4.5,1.2c0.7,0.2,1.4,0.3,2.1,0.3c0.7,0,1.4-0.1,2.1-0.3l4.5-1.2C208.1,32.5,208.2,32.3,208.2,32.2z"/>
				<path class="st6" d="M201.4,30.8c-0.6,0-1.1,0.5-1.1,1.1c0,0.6,0.5,1.1,1.1,1.1c0.6,0,1.1-0.5,1.1-1.1
					C202.5,31.3,202,30.8,201.4,30.8z M201.4,32.5c-0.3,0-0.6-0.3-0.6-0.6c0-0.3,0.3-0.6,0.6-0.6c0.3,0,0.6,0.3,0.6,0.6
					C202,32.3,201.7,32.5,201.4,32.5z"/>
			</g>
		</g>
		<g>
			<circle class="st3" cx="17.5" cy="100.4" r="15"/>
			<circle class="st5" cx="17.5" cy="100.4" r="13.8"/>
			<g>
				<path class="st6" d="M23.5,96.5H11.6c-0.5,0-0.8,0.4-0.8,0.8v7.9c0,0.5,0.4,0.8,0.8,0.8h11.9c0.5,0,0.8-0.4,0.8-0.8v-7.9
					C24.3,96.9,23.9,96.5,23.5,96.5z M23.7,105.3c0,0.2-0.1,0.3-0.3,0.3H11.6c-0.2,0-0.3-0.1-0.3-0.3v-7.9c0-0.2,0.1-0.3,0.3-0.3
					h11.9c0.2,0,0.3,0.1,0.3,0.3V105.3z"/>
				<path class="st6" d="M18.9,94.8h-2.8c-0.5,0-0.8,0.4-0.8,0.8v1.1c0,0.2,0.1,0.3,0.3,0.3h4c0.2,0,0.3-0.1,0.3-0.3v-1.1
					C19.8,95.2,19.4,94.8,18.9,94.8z M19.2,96.5h-3.4v-0.8c0-0.2,0.1-0.3,0.3-0.3h2.8c0.2,0,0.3,0.1,0.3,0.3L19.2,96.5L19.2,96.5z"
					/>
				<path class="st6" d="M24.3,100.1c0-0.2-0.2-0.2-0.3-0.2l-4.5,1.2c-1.3,0.3-2.6,0.3-3.9,0l-4.5-1.2c-0.1,0-0.3,0.1-0.3,0.2
					c0,0.2,0.1,0.3,0.2,0.3l4.5,1.2c0.7,0.2,1.4,0.3,2.1,0.3s1.4-0.1,2.1-0.3l4.5-1.2C24.2,100.4,24.3,100.2,24.3,100.1z"/>
				<path class="st6" d="M17.5,98.7c-0.6,0-1.1,0.5-1.1,1.1s0.5,1.1,1.1,1.1c0.6,0,1.1-0.5,1.1-1.1S18.1,98.7,17.5,98.7z
					 M17.5,100.4c-0.3,0-0.6-0.3-0.6-0.6c0-0.3,0.3-0.6,0.6-0.6c0.3,0,0.6,0.3,0.6,0.6C18.1,100.2,17.8,100.4,17.5,100.4z"/>
			</g>
		</g>
		<g>
			<circle class="st3" cx="417.5" cy="17.3" r="15"/>
			<circle class="st5" cx="417.5" cy="17.3" r="13.8"/>
			<g>
				<path class="st6" d="M423.4,13.3h-11.9c-0.5,0-0.8,0.4-0.8,0.8v7.9c0,0.5,0.4,0.8,0.8,0.8h11.9c0.5,0,0.8-0.4,0.8-0.8v-7.9
					C424.3,13.7,423.9,13.3,423.4,13.3z M423.7,22.1c0,0.2-0.1,0.3-0.3,0.3h-11.9c-0.2,0-0.3-0.1-0.3-0.3v-7.9
					c0-0.2,0.1-0.3,0.3-0.3h11.9c0.2,0,0.3,0.1,0.3,0.3V22.1z"/>
				<path class="st6" d="M418.9,11.6h-2.8c-0.5,0-0.8,0.4-0.8,0.8v1.1c0,0.2,0.1,0.3,0.3,0.3h4c0.2,0,0.3-0.1,0.3-0.3v-1.1
					C419.7,12,419.4,11.6,418.9,11.6z M419.2,13.3h-3.4v-0.8c0-0.2,0.1-0.3,0.3-0.3h2.8c0.2,0,0.3,0.1,0.3,0.3V13.3L419.2,13.3z"/>
				<path class="st6" d="M424.3,16.9c0-0.2-0.2-0.2-0.3-0.2l-4.5,1.2c-1.3,0.3-2.6,0.3-3.9,0l-4.5-1.2c-0.1,0-0.3,0.1-0.3,0.2
					c0,0.2,0.1,0.3,0.2,0.3l4.5,1.2c0.7,0.2,1.4,0.3,2.1,0.3s1.4-0.1,2.1-0.3l4.5-1.2C424.2,17.2,424.3,17.1,424.3,16.9z"/>
				<path class="st6" d="M417.5,15.6c-0.6,0-1.1,0.5-1.1,1.1s0.5,1.1,1.1,1.1s1.1-0.5,1.1-1.1S418.1,15.6,417.5,15.6z M417.5,17.3
					c-0.3,0-0.6-0.3-0.6-0.6c0-0.3,0.3-0.6,0.6-0.6s0.6,0.3,0.6,0.6C418,17,417.8,17.3,417.5,17.3z"/>
			</g>
		</g>
		<g>
			<circle class="st3" cx="279.9" cy="302.7" r="15"/>
			<circle class="st5" cx="279.9" cy="302.7" r="13.8"/>
			<g>
				<path class="st6" d="M285.8,298.8H274c-0.5,0-0.8,0.4-0.8,0.8v7.9c0,0.5,0.4,0.8,0.8,0.8h11.9c0.5,0,0.8-0.4,0.8-0.8v-7.9
					C286.7,299.2,286.3,298.8,285.8,298.8z M286.1,307.5c0,0.2-0.1,0.3-0.3,0.3H274c-0.2,0-0.3-0.1-0.3-0.3v-7.9
					c0-0.2,0.1-0.3,0.3-0.3h11.9c0.2,0,0.3,0.1,0.3,0.3V307.5z"/>
				<path class="st6" d="M281.3,297.1h-2.8c-0.5,0-0.8,0.4-0.8,0.8v1.1c0,0.2,0.1,0.3,0.3,0.3h4c0.2,0,0.3-0.1,0.3-0.3v-1.1
					C282.1,297.5,281.8,297.1,281.3,297.1z M281.6,298.8h-3.4v-0.8c0-0.2,0.1-0.3,0.3-0.3h2.8c0.2,0,0.3,0.1,0.3,0.3V298.8
					L281.6,298.8z"/>
				<path class="st6" d="M286.7,302.4c0-0.2-0.2-0.2-0.3-0.2l-4.5,1.2c-1.3,0.3-2.6,0.3-3.9,0l-4.5-1.2c-0.1,0-0.3,0.1-0.3,0.2
					c0,0.2,0.1,0.3,0.2,0.3l4.5,1.2c0.7,0.2,1.4,0.3,2.1,0.3s1.4-0.1,2.1-0.3l4.5-1.2C286.6,302.7,286.7,302.5,286.7,302.4z"/>
				<path class="st6" d="M279.9,301c-0.6,0-1.1,0.5-1.1,1.1c0,0.6,0.5,1.1,1.1,1.1s1.1-0.5,1.1-1.1C281,301.5,280.5,301,279.9,301z
					 M279.9,302.7c-0.3,0-0.6-0.3-0.6-0.6s0.3-0.6,0.6-0.6s0.6,0.3,0.6,0.6C280.5,302.5,280.2,302.7,279.9,302.7z"/>
			</g>
		</g>
		<g>
			<path class="st0" d="M272,270.6c0-9.4,8.3-9.4,10.1-11.9l0.2-1.1c-2.6-1.3-4.4-4.5-4.4-8.1c0-4.9,3.2-8.8,7.1-8.8
				c3.1,0,5.7,2.4,6.6,5.9c-3.9,1.2-6.8,5.5-6.8,10.5c0,3.5,1.4,6.6,3.6,8.7c-0.4,0.2-0.8,0.4-1.1,0.5c-1.8,0.8-4.3,2-6.1,4.4H272
				L272,270.6z"/>
			<path class="st1" d="M294.1,278.2L294.1,278.2l-0.2,0H281c0-9.4,8.3-9.4,10.1-11.9l0.2-1.1c-2.6-1.3-4.4-4.5-4.4-8.1
				c0-4.9,3.2-8.8,7.1-8.8c3.9,0,7.1,3.9,7.1,8.8c0,3.7-1.8,6.8-4.3,8.1l0.2,1.3c2,2.3,10,2.5,10,11.8H294.1L294.1,278.2z"/>
			<path class="st2" d="M306.7,270.6L306.7,270.6L306.7,270.6c-1.8-2.4-4.3-3.5-6.1-4.4c-0.4-0.2-0.8-0.4-1.1-0.5
				c2.2-2,3.6-5.2,3.6-8.7c0-5-2.9-9.3-6.8-10.5c1-3.4,3.6-5.9,6.6-5.9c3.9,0,7.1,3.9,7.1,8.8c0,3.7-1.8,6.8-4.3,8.1l0.2,1.3
				c2,2.3,10,2.5,10,11.8H306.7L306.7,270.6z"/>
		</g>
		<path class="st3" d="M293.6,225.6c-7.4,0-13.9,3-19,7.4l-4.7,6.3c-2.5,4.2-4,9-4,14.3c0,15.5,12.5,28.2,28.2,28.2
			c15.3,0,27.8-12.5,27.8-28.2C321.8,238.1,309.3,225.6,293.6,225.6z M293.6,277.5c-13.1,0-23.9-10.6-23.9-23.9
			c0-13.1,10.6-23.9,23.9-23.9c13.1,0,23.9,10.6,23.9,23.9C317.6,266.9,307,277.5,293.6,277.5z"/>
		<g>
			<g>
				<path class="st1" d="M373,62.2c8.9,0,16.7-4.5,21.4-11.4c-4.7-6.8-12.5-11.2-21.4-11.2c-8.9,0-16.7,4.5-21.4,11.2
					C356.3,57.8,364.1,62.2,373,62.2z"/>
				<circle class="st1" cx="373" cy="27.1" r="8"/>
			</g>
			<path class="st3" d="M372.6,9.6c-7.4,0-13.9,3-19,7.4l-4.7,6.3c-2.5,4.2-4,9-4,14.3c0,15.5,12.5,28.2,28.2,28.2
				c15.3,0,27.8-12.5,27.8-28.2C400.8,22.1,388.3,9.6,372.6,9.6z M372.6,61.5c-13.1,0-23.9-10.6-23.9-23.9
				c0-13.1,10.6-23.9,23.9-23.9c13.1,0,23.9,10.6,23.9,23.9C396.6,50.9,386,61.5,372.6,61.5z"/>
		</g>
		<line class="st4" x1="348.4" y1="48.9" x2="309.2" y2="70.6"/>
		<line class="st4" x1="219.4" y1="163.9" x2="170.2" y2="164.6"/>
		<g>
			<g>
				<path class="st1" d="M68,140.2c8.9,0,16.7-4.5,21.4-11.4c-4.7-6.8-12.5-11.2-21.4-11.2c-8.9,0-16.7,4.5-21.4,11.2
					C51.3,135.8,59.1,140.2,68,140.2z"/>
				<circle class="st1" cx="68" cy="105.1" r="8"/>
			</g>
			<path class="st3" d="M67.6,87.6c-7.4,0-13.9,3-19,7.4l-4.7,6.3c-2.5,4.2-4,9-4,14.3c0,15.5,12.5,28.2,28.2,28.2
				c15.3,0,27.8-12.5,27.8-28.2C95.8,100.1,83.3,87.6,67.6,87.6z M67.6,139.5c-13.1,0-23.9-10.6-23.9-23.9
				c0-13.1,10.6-23.9,23.9-23.9c13.1,0,23.9,10.6,23.9,23.9C91.6,128.9,81,139.5,67.6,139.5z"/>
		</g>
		<line class="st4" x1="120.4" y1="155.9" x2="82.2" y2="136.6"/>
	</g>
	<g>
		<path class="st2" d="M425.4,23.1c0,0.2-0.2,0.4-0.4,0.4h-16.7c-0.2,0-0.4-0.2-0.4-0.4V11.9c0-0.2,0.2-0.4,0.4-0.4H425
			c0.2,0,0.4,0.2,0.4,0.4V23.1z"/>
		<path class="st2" d="M418.7,9.2h-4c-0.7,0-1.2,0.5-1.2,1.2V12c0,0.2,0.2,0.4,0.4,0.4h5.6c0.2,0,0.4-0.2,0.4-0.4v-1.6
			C419.9,9.8,419.3,9.2,418.7,9.2z M419.1,11.6h-4.8v-1.2c0-0.2,0.2-0.4,0.4-0.4h4c0.2,0,0.4,0.2,0.4,0.4L419.1,11.6L419.1,11.6z"/>
		<path class="st5" d="M425.7,15.9c-0.1-0.2-0.3-0.3-0.5-0.3l-6,1.6c-1.7,0.4-3.4,0.4-5.1,0l-6-1.6c-0.2-0.1-0.4,0.1-0.5,0.3
			c-0.1,0.2,0.1,0.4,0.3,0.5l6,1.6c0.9,0.2,1.8,0.4,2.8,0.4s1.9-0.1,2.8-0.4l6-1.6C425.6,16.3,425.7,16.1,425.7,15.9z"/>
		<path class="st5" d="M416.7,13.9c-0.9,0-1.6,0.7-1.6,1.6c0,0.9,0.7,1.6,1.6,1.6s1.6-0.7,1.6-1.6C418.3,14.6,417.5,13.9,416.7,13.9
			z M416.7,16.3c-0.4,0-0.8-0.4-0.8-0.8c0-0.4,0.4-0.8,0.8-0.8c0.4,0,0.8,0.4,0.8,0.8C417.5,16,417.1,16.3,416.7,16.3z"/>
	</g>
	<g>
		<path class="st2" d="M209.4,38.1c0,0.2-0.2,0.4-0.4,0.4h-16.7c-0.2,0-0.4-0.2-0.4-0.4V26.9c0-0.2,0.2-0.4,0.4-0.4H209
			c0.2,0,0.4,0.2,0.4,0.4V38.1z"/>
		<path class="st2" d="M202.7,24.2h-4c-0.7,0-1.2,0.5-1.2,1.2V27c0,0.2,0.2,0.4,0.4,0.4h5.6c0.2,0,0.4-0.2,0.4-0.4v-1.6
			C203.9,24.8,203.3,24.2,202.7,24.2z M203.1,26.6h-4.8v-1.2c0-0.2,0.2-0.4,0.4-0.4h4c0.2,0,0.4,0.2,0.4,0.4L203.1,26.6L203.1,26.6z
			"/>
		<path class="st5" d="M209.7,30.9c-0.1-0.2-0.3-0.3-0.5-0.3l-6,1.6c-1.7,0.4-3.4,0.4-5.1,0l-6-1.6c-0.2-0.1-0.4,0.1-0.5,0.3
			c-0.1,0.2,0.1,0.4,0.3,0.5l6,1.6c0.9,0.2,1.8,0.4,2.8,0.4c0.9,0,1.9-0.1,2.8-0.4l6-1.6C209.6,31.3,209.7,31.1,209.7,30.9z"/>
		<path class="st5" d="M200.7,28.9c-0.9,0-1.6,0.7-1.6,1.6s0.7,1.6,1.6,1.6s1.6-0.7,1.6-1.6S201.5,28.9,200.7,28.9z M200.7,31.3
			c-0.4,0-0.8-0.4-0.8-0.8c0-0.4,0.4-0.8,0.8-0.8c0.4,0,0.8,0.4,0.8,0.8C201.5,31,201.1,31.3,200.7,31.3z"/>
	</g>
	<g>
		<path class="st2" d="M25.4,106.1c0,0.2-0.2,0.4-0.4,0.4H8.3c-0.2,0-0.4-0.2-0.4-0.4V94.9c0-0.2,0.2-0.4,0.4-0.4H25
			c0.2,0,0.4,0.2,0.4,0.4V106.1z"/>
		<path class="st2" d="M18.7,92.2h-4c-0.7,0-1.2,0.5-1.2,1.2V95c0,0.2,0.2,0.4,0.4,0.4h5.6c0.2,0,0.4-0.2,0.4-0.4v-1.6
			C19.9,92.8,19.3,92.2,18.7,92.2z M19.1,94.6h-4.8v-1.2c0-0.2,0.2-0.4,0.4-0.4h4c0.2,0,0.4,0.2,0.4,0.4L19.1,94.6L19.1,94.6z"/>
		<path class="st5" d="M25.7,98.9c-0.1-0.2-0.3-0.3-0.5-0.3l-6,1.6c-1.7,0.4-3.4,0.4-5.1,0l-6-1.6c-0.2-0.1-0.4,0.1-0.5,0.3
			c-0.1,0.2,0.1,0.4,0.3,0.5l6,1.6c0.9,0.2,1.8,0.4,2.8,0.4c0.9,0,1.9-0.1,2.8-0.4l6-1.6C25.6,99.3,25.7,99.1,25.7,98.9z"/>
		<path class="st5" d="M16.7,96.9c-0.9,0-1.6,0.7-1.6,1.6c0,0.9,0.7,1.6,1.6,1.6c0.9,0,1.6-0.7,1.6-1.6
			C18.3,97.6,17.5,96.9,16.7,96.9z M16.7,99.3c-0.4,0-0.8-0.4-0.8-0.8c0-0.4,0.4-0.8,0.8-0.8c0.4,0,0.8,0.4,0.8,0.8
			C17.5,99,17.1,99.3,16.7,99.3z"/>
	</g>
	<g>
		<path class="st2" d="M287.4,308.1c0,0.2-0.2,0.4-0.4,0.4h-16.7c-0.2,0-0.4-0.2-0.4-0.4v-11.1c0-0.2,0.2-0.4,0.4-0.4H287
			c0.2,0,0.4,0.2,0.4,0.4V308.1z"/>
		<path class="st2" d="M280.7,294.2h-4c-0.7,0-1.2,0.5-1.2,1.2v1.6c0,0.2,0.2,0.4,0.4,0.4h5.6c0.2,0,0.4-0.2,0.4-0.4v-1.6
			C281.9,294.8,281.3,294.2,280.7,294.2z M281.1,296.6h-4.8v-1.2c0-0.2,0.2-0.4,0.4-0.4h4c0.2,0,0.4,0.2,0.4,0.4L281.1,296.6
			L281.1,296.6z"/>
		<path class="st5" d="M287.7,300.9c-0.1-0.2-0.3-0.3-0.5-0.3l-6,1.6c-1.7,0.4-3.4,0.4-5.1,0l-6-1.6c-0.2-0.1-0.4,0.1-0.5,0.3
			c-0.1,0.2,0.1,0.4,0.3,0.5l6,1.6c0.9,0.2,1.8,0.4,2.8,0.4s1.9-0.1,2.8-0.4l6-1.6C287.6,301.3,287.7,301.1,287.7,300.9z"/>
		<path class="st5" d="M278.7,298.9c-0.9,0-1.6,0.7-1.6,1.6s0.7,1.6,1.6,1.6s1.6-0.7,1.6-1.6S279.5,298.9,278.7,298.9z M278.7,301.3
			c-0.4,0-0.8-0.4-0.8-0.8c0-0.4,0.4-0.8,0.8-0.8c0.4,0,0.8,0.4,0.8,0.8C279.5,301,279.1,301.3,278.7,301.3z"/>
	</g>
</g>
</svg>
