<?xml version="1.0" encoding="utf-8"?>
<!-- Generator: Adobe Illustrator 21.1.0, SVG Export Plug-In . SVG Version: 6.00 Build 0)  -->
<svg version="1.1" id="Layer_1" xmlns="http://www.w3.org/2000/svg" xmlns:xlink="http://www.w3.org/1999/xlink" x="0px" y="0px"
	 viewBox="0 0 344.8 601.8" style="enable-background:new 0 0 344.8 601.8;" xml:space="preserve">
<style type="text/css">
	.st0{fill:url(#SVGID_1_);}
	.st1{fill-rule:evenodd;clip-rule:evenodd;}
	.st2{opacity:0.6;}
	.st3{fill-rule:evenodd;clip-rule:evenodd;fill:#414141;}
	.st4{fill-rule:evenodd;clip-rule:evenodd;fill:#3C3C3C;}
	.st5{fill-rule:evenodd;clip-rule:evenodd;fill:#656565;}
	.st6{fill-rule:evenodd;clip-rule:evenodd;fill:#FFFFFF;}
	.st7{opacity:0.102;}
	.st8{fill-rule:evenodd;clip-rule:evenodd;fill:#272727;}
	.st9{fill-rule:evenodd;clip-rule:evenodd;fill:#35419F;}
	.st10{fill-rule:evenodd;clip-rule:evenodd;fill:#171A23;}
	.st11{fill-rule:evenodd;clip-rule:evenodd;fill:#E2E3E7;}
	.st12{fill-rule:evenodd;clip-rule:evenodd;fill:#C9CCD2;}
	.st13{fill-rule:evenodd;clip-rule:evenodd;fill:#0C155F;}
	.st14{fill-rule:evenodd;clip-rule:evenodd;fill:#CCCCCC;}
	.st15{fill-rule:evenodd;clip-rule:evenodd;fill:#D7D7D7;}
	.st16{fill-rule:evenodd;clip-rule:evenodd;fill:#D0D0D0;}
	.st17{fill-rule:evenodd;clip-rule:evenodd;fill:#EBEBEB;}
	.st18{fill:#FFFFFF;}
</style>
<g>
	<g>
		<g>
			<linearGradient id="SVGID_1_" gradientUnits="userSpaceOnUse" x1="172.3917" y1="562.948" x2="172.3917" y2="601.7963">
				<stop  offset="0" style="stop-color:#4D4D4D"/>
				<stop  offset="9.628928e-02" style="stop-color:#606060;stop-opacity:0.9037"/>
				<stop  offset="0.5374" style="stop-color:#B5B5B5;stop-opacity:0.4626"/>
				<stop  offset="0.8488" style="stop-color:#EAEAEA;stop-opacity:0.1512"/>
				<stop  offset="1" style="stop-color:#FFFFFF;stop-opacity:0"/>
			</linearGradient>
			<path class="st0" d="M172.4,562.9c-98.3,0-169,34.5-169,34.5c-4.9,2.4-4.5,4.4,1,4.4h335.9c5.5,0,6-2,1-4.4
				C341.4,597.4,270.7,562.9,172.4,562.9z"/>
		</g>
		<g>
			<g>
				<g id="Rounded_Rectangle_3_copy_239_">
					<g>
						<path class="st1" d="M264.7,0H77.6C51.4,0,30.2,21.2,30.2,47.5v482.1c0,26.2,21.2,47.5,47.5,47.5h187.1
							c26.2,0,47.5-21.2,47.5-47.5V47.5C312.1,21.2,290.9,0,264.7,0z"/>
					</g>
				</g>
				<g id="Rounded_Rectangle_3_239_" class="st2">
					<g>
						<path class="st3" d="M266.7,4.5H75.5c-22.3,0-40.3,18.1-40.3,40.3v484.5c0,22.3,18.1,40.3,40.3,40.3h191.2
							c22.3,0,40.3-18.1,40.3-40.3V44.8C307,22.6,289,4.5,266.7,4.5z"/>
					</g>
				</g>
				<g id="Ellipse_1_205_">
					<g>
						<circle class="st1" cx="78.5" cy="23" r="5.6"/>
					</g>
				</g>
				<g id="Ellipse_1_copy_205_">
					<g>
						<circle class="st4" cx="78.5" cy="23" r="2.8"/>
					</g>
				</g>
				<g id="Ellipse_1_copy_2_205_">
					<g>
						<circle class="st5" cx="78.5" cy="23" r="1.1"/>
					</g>
				</g>
				<g id="Rectangle_1_239_">
					<g>
						<rect x="43.8" y="65.1" class="st6" width="256.2" height="455.5"/>
					</g>
				</g>
				<g id="Rectangle_1_copy_239_" class="st7">
					<g>
						<polygon class="st1" points="43.9,65.2 43.9,520.8 122.7,520.8 238.7,65.2 						"/>
					</g>
				</g>
				<g id="Rounded_Rectangle_1_239_">
					<g>
						<path class="st1" d="M195.9,20.8h-50.6c-1.6,0-2.8,1.3-2.8,2.8s1.3,2.8,2.8,2.8h50.6c1.6,0,2.8-1.3,2.8-2.8
							S197.4,20.8,195.9,20.8z"/>
					</g>
				</g>
				<g id="Rounded_Rectangle_2_205_">
					<g>
						<path class="st1" d="M177,42.1h-12.4c-2.3,0-4.2,1.9-4.2,4.2c0,2.3,1.9,4.2,4.2,4.2H177c2.3,0,4.2-1.9,4.2-4.2
							C181.3,44,179.4,42.1,177,42.1z"/>
					</g>
				</g>
				<g id="Rounded_Rectangle_4_239_">
					<g>
						<path class="st8" d="M313.2,219.7c-0.8,0-1.4,0.6-1.4,1.4v70.8c0,0.8,0.6,1.4,1.4,1.4c0.8,0,1.4-0.6,1.4-1.4v-70.8
							C314.6,220.3,314,219.7,313.2,219.7z"/>
					</g>
				</g>
				<g id="Rounded_Rectangle_5_239_">
					<g>
						<path class="st8" d="M312.7,138.2c-0.5,0-0.8,0.4-0.8,0.8v32c0,0.5,0.4,0.8,0.8,0.8s0.8-0.4,0.8-0.8v-32
							C313.6,138.6,313.2,138.2,312.7,138.2z"/>
					</g>
				</g>
				<g id="Rectangle_2_239_">
					<g>
						<rect x="234.7" class="st8" width="9.3" height="4.5"/>
					</g>
				</g>
				<g id="Shape_1_239_">
					<g>
						<path class="st8" d="M306.5,53.4h2.8v-6.7h-2.8V53.4z M309.3,46.6v6.7l2.8,1.1v-6.2L309.3,46.6z"/>
					</g>
				</g>
				<g id="Shape_1_copy_239_">
					<g>
						<polygon class="st8" points="35.8,46.6 33,46.6 33,46.6 30.2,48.3 30.2,54.5 33,53.4 33,53.4 35.8,53.4 						"/>
					</g>
				</g>
				<g id="Shape_2_239_">
					<g>
						<path class="st8" d="M305.4,538.8c-2.1,2.2-3.8,8.5-3.8,8.5s4.5-0.1,6.7-0.1c1.7-1.9,2.8-8.4,2.8-8.4L305.4,538.8z"/>
					</g>
				</g>
				<g id="Shape_2_copy_239_">
					<g>
						<path class="st8" d="M36.7,538.8l-5.4,0c0,0,0.8,6.3,2.5,8.4c2.2,0,6.7,0.1,6.7,0.1S38.8,541,36.7,538.8z"/>
					</g>
				</g>
				
					<image style="overflow:visible;" width="1160" height="2396" id="outer_border_xA0_Image_120_" xlink:href="9412112220107446.png"  transform="matrix(0.2373 0 0 0.2373 33.4783 2.8472)">
				</image>
				<g id="Rounded_Rectangle_3_copy_237_">
					<g>
						<path class="st9" d="M264.7,0H77.6C51.4,0,30.2,21.2,30.2,47.5v482.1c0,26.2,21.2,47.5,47.5,47.5h187.1
							c26.2,0,47.5-21.2,47.5-47.5V47.5C312.1,21.2,290.9,0,264.7,0z"/>
					</g>
				</g>
				<g id="Rounded_Rectangle_3_237_">
					<g>
						<path class="st6" d="M266.7,4.5H75.5c-22.3,0-40.3,18.1-40.3,40.3v484.5c0,22.3,18.1,40.3,40.3,40.3h191.2
							c22.3,0,40.3-18.1,40.3-40.3V44.8C307,22.6,289,4.5,266.7,4.5z"/>
					</g>
				</g>
				<g id="Ellipse_1_203_">
					<g>
						<circle class="st10" cx="78.5" cy="23" r="5.6"/>
					</g>
				</g>
				<g id="Ellipse_1_copy_203_">
					<g>
						<circle class="st4" cx="78.5" cy="23" r="2.8"/>
					</g>
				</g>
				<g id="Ellipse_1_copy_2_203_">
					<g>
						<circle class="st5" cx="78.5" cy="23" r="1.1"/>
					</g>
				</g>
				<g id="Rectangle_1_237_">
					<g>
						<rect x="43.8" y="65.1" class="st11" width="256.2" height="455.5"/>
					</g>
				</g>
				<g id="Rectangle_1_copy_237_" class="st7">
					<g>
						<polygon class="st1" points="43.9,65.2 43.9,520.8 122.7,520.8 238.7,65.2 						"/>
					</g>
				</g>
				<g id="Rounded_Rectangle_1_237_">
					<g>
						<path class="st12" d="M195.9,20.8h-50.6c-1.6,0-2.8,1.3-2.8,2.8s1.3,2.8,2.8,2.8h50.6c1.6,0,2.8-1.3,2.8-2.8
							S197.4,20.8,195.9,20.8z"/>
					</g>
				</g>
				<g id="Rounded_Rectangle_2_203_">
					<g>
						<path class="st1" d="M177,42.1h-12.4c-2.3,0-4.2,1.9-4.2,4.2c0,2.3,1.9,4.2,4.2,4.2H177c2.3,0,4.2-1.9,4.2-4.2
							C181.3,44,179.4,42.1,177,42.1z"/>
					</g>
				</g>
				<g id="Rounded_Rectangle_4_237_">
					<g>
						<path class="st13" d="M313.2,219.7c-0.8,0-1.4,0.6-1.4,1.4v70.8c0,0.8,0.6,1.4,1.4,1.4c0.8,0,1.4-0.6,1.4-1.4v-70.8
							C314.6,220.3,314,219.7,313.2,219.7z"/>
					</g>
				</g>
				<g id="Rounded_Rectangle_5_237_">
					<g>
						<path class="st13" d="M312.7,138.2c-0.5,0-0.8,0.4-0.8,0.8v32c0,0.5,0.4,0.8,0.8,0.8s0.8-0.4,0.8-0.8v-32
							C313.6,138.6,313.2,138.2,312.7,138.2z"/>
					</g>
				</g>
				<g id="Rectangle_2_237_">
					<g>
						<rect x="234.7" class="st6" width="9.3" height="4.5"/>
					</g>
				</g>
				<g id="Shape_1_237_">
					<g>
						<path class="st6" d="M306.5,53.4h2.8v-6.7h-2.8V53.4z M309.3,46.6v6.7l2.8,1.1v-6.2L309.3,46.6z"/>
					</g>
				</g>
				<g id="Shape_1_copy_237_">
					<g>
						<polygon class="st6" points="35.8,46.6 33,46.6 33,46.6 30.2,48.3 30.2,54.5 33,53.4 33,53.4 35.8,53.4 						"/>
					</g>
				</g>
				<g id="Shape_2_237_">
					<g>
						<path class="st6" d="M305.4,538.8c-2.1,2.2-3.8,8.5-3.8,8.5s4.5-0.1,6.7-0.1c1.7-1.9,2.8-8.4,2.8-8.4L305.4,538.8z"/>
					</g>
				</g>
				<g id="Shape_2_copy_237_">
					<g>
						<path class="st6" d="M36.7,538.8l-5.4,0c0,0,0.8,6.3,2.5,8.4c2.2,0,6.7,0.1,6.7,0.1S38.8,541,36.7,538.8z"/>
					</g>
				</g>
				
					<image style="overflow:visible;" width="1160" height="2396" id="outer_border_xA0_Image_119_" xlink:href="941211222010744A.png"  transform="matrix(0.2373 0 0 0.2373 33.4783 2.8472)">
				</image>
				<g id="Rounded_Rectangle_3_copy_235_">
					<g>
						<path class="st14" d="M264.7,0H77.6C51.4,0,30.2,21.2,30.2,47.5v482.1c0,26.2,21.2,47.5,47.5,47.5h187.1
							c26.2,0,47.5-21.2,47.5-47.5V47.5C312.1,21.2,290.9,0,264.7,0z"/>
					</g>
				</g>
				<g id="Rounded_Rectangle_3_235_" class="st2">
					<g>
						<path class="st6" d="M266.7,4.5H75.5c-22.3,0-40.3,18.1-40.3,40.3v484.5c0,22.3,18.1,40.3,40.3,40.3h191.2
							c22.3,0,40.3-18.1,40.3-40.3V44.8C307,22.6,289,4.5,266.7,4.5z"/>
					</g>
				</g>
				<g id="Rectangle_1_235_">
					<g>
						<rect x="43.8" y="65.1" class="st15" width="256.2" height="455.5"/>
					</g>
				</g>
				<g id="Rectangle_1_copy_235_" class="st7">
					<g>
						<polygon class="st1" points="43.9,65.2 43.9,520.8 122.7,520.8 238.7,65.2 						"/>
					</g>
				</g>
				<g id="Rounded_Rectangle_1_235_">
					<g>
						<path class="st16" d="M195.9,20.8h-50.6c-1.6,0-2.8,1.3-2.8,2.8s1.3,2.8,2.8,2.8h50.6c1.6,0,2.8-1.3,2.8-2.8
							S197.4,20.8,195.9,20.8z"/>
					</g>
				</g>
				<g id="Rounded_Rectangle_4_235_">
					<g>
						<path class="st17" d="M313.2,219.7c-0.8,0-1.4,0.6-1.4,1.4v70.8c0,0.8,0.6,1.4,1.4,1.4c0.8,0,1.4-0.6,1.4-1.4v-70.8
							C314.6,220.3,314,219.7,313.2,219.7z"/>
					</g>
				</g>
				<g id="Rounded_Rectangle_5_235_">
					<g>
						<path class="st17" d="M312.7,138.2c-0.5,0-0.8,0.4-0.8,0.8v32c0,0.5,0.4,0.8,0.8,0.8s0.8-0.4,0.8-0.8v-32
							C313.6,138.6,313.2,138.2,312.7,138.2z"/>
					</g>
				</g>
				<g id="Rectangle_2_235_">
					<g>
						<rect x="234.7" class="st17" width="9.3" height="4.5"/>
					</g>
				</g>
				<g id="Shape_1_235_">
					<g>
						<path class="st17" d="M306.5,53.4h2.8v-6.7h-2.8V53.4z M309.3,46.6v6.7l2.8,1.1v-6.2L309.3,46.6z"/>
					</g>
				</g>
				<g id="Shape_1_copy_235_">
					<g>
						<polygon class="st17" points="35.8,46.6 33,46.6 33,46.6 30.2,48.3 30.2,54.5 33,53.4 33,53.4 35.8,53.4 						"/>
					</g>
				</g>
				<g id="Shape_2_235_">
					<g>
						<path class="st17" d="M305.4,538.8c-2.1,2.2-3.8,8.5-3.8,8.5s4.5-0.1,6.7-0.1c1.7-1.9,2.8-8.4,2.8-8.4L305.4,538.8z"/>
					</g>
				</g>
				<g id="Shape_2_copy_235_">
					<g>
						<path class="st17" d="M36.7,538.8l-5.4,0c0,0,0.8,6.3,2.5,8.4c2.2,0,6.7,0.1,6.7,0.1S38.8,541,36.7,538.8z"/>
					</g>
				</g>
				
					<image style="overflow:visible;" width="1160" height="2396" id="outer_border_xA0_Image_118_" xlink:href="941211222010744D.png"  transform="matrix(0.2373 0 0 0.2373 33.4783 2.8472)">
				</image>
			</g>
		</g>
	</g>
	<rect x="43.7" y="64" class="st18" width="257" height="458"/>
</g>
</svg>
