<?xml version="1.0" encoding="utf-8"?>
<!-- Generator: Adobe Illustrator 21.1.0, SVG Export Plug-In . SVG Version: 6.00 Build 0)  -->
<svg version="1.1" id="Layer_1" xmlns="http://www.w3.org/2000/svg" xmlns:xlink="http://www.w3.org/1999/xlink" x="0px" y="0px"
	 viewBox="0 0 60 60" style="enable-background:new 0 0 60 60;" xml:space="preserve">
<style type="text/css">
	.st0{fill:none;stroke:#000000;stroke-width:1.342;stroke-miterlimit:10;}
</style>
<g>
	<g>
		<path class="st0" d="M39.4,1.9H20.8c-1.6,0-3,1.3-3,3v18.6c0,1.6,1.3,3,3,3h18.6c1.6,0,3-1.3,3-3V4.9C42.3,3.2,41,1.9,39.4,1.9z"
			/>
		<g>
			<path d="M27.6,14.6v-0.7h4.5c-0.2-0.1-0.4-0.2-0.6-0.3c-0.2-0.1-0.4-0.3-0.5-0.5c-0.2-0.2-0.3-0.4-0.4-0.6
				c-0.1-0.2-0.1-0.5-0.1-0.8c0-0.2,0.1-0.5,0.2-0.7c0.1-0.2,0.2-0.4,0.4-0.6c0.2-0.2,0.4-0.3,0.6-0.4c0.2-0.1,0.5-0.1,0.8-0.1
				c0.4,0,0.8,0.1,1.1,0.3c0.3,0.2,0.6,0.4,0.9,0.8c0.2,0.3,0.4,0.7,0.6,1.1c0.1,0.4,0.2,0.9,0.2,1.4c0,0.7-0.1,1.4-0.3,2
				c-0.2,0.6-0.6,1.1-1,1.6c-0.4,0.4-1,0.8-1.6,1.1c-0.6,0.3-1.3,0.4-2.1,0.4c-0.8,0-1.6-0.1-2.2-0.4c-0.7-0.2-1.2-0.6-1.7-1
				c-0.5-0.4-0.8-1-1.1-1.6c-0.3-0.6-0.4-1.3-0.4-2c0-0.4,0.1-0.9,0.2-1.3c0.1-0.4,0.3-0.8,0.5-1.1c0.2-0.3,0.5-0.6,0.8-0.8
				c0.3-0.2,0.7-0.3,1.2-0.3c0.2,0,0.4,0,0.6,0.1c0.2,0.1,0.4,0.2,0.5,0.3c0.2,0.2,0.3,0.3,0.4,0.5c0.1,0.2,0.1,0.4,0.1,0.7
				c0,0.2,0,0.5-0.1,0.7c-0.1,0.2-0.2,0.4-0.4,0.5c-0.1,0.1-0.3,0.2-0.5,0.3c-0.2,0.1-0.4,0.1-0.6,0.1c-0.2,0-0.4,0-0.6-0.1
				c-0.2-0.1-0.3-0.2-0.5-0.3c-0.1-0.1-0.3-0.3-0.3-0.5c-0.1-0.2-0.1-0.4-0.1-0.6c0,0,0-0.1,0-0.1c0,0,0-0.1,0-0.2
				c0-0.1,0-0.1,0-0.2c0-0.1,0-0.1,0.1-0.2c-0.1,0.2-0.2,0.4-0.3,0.6c-0.1,0.2-0.1,0.4-0.2,0.6c0,0.2-0.1,0.4-0.1,0.5
				c0,0.2,0,0.3,0,0.5c0,0.6,0.1,1.1,0.4,1.5c0.2,0.4,0.6,0.8,1,1.1c0.4,0.3,0.9,0.5,1.5,0.7c0.6,0.2,1.2,0.2,1.8,0.2
				c0.6,0,1.2-0.1,1.8-0.3c0.5-0.2,1-0.4,1.4-0.7c0.4-0.3,0.7-0.7,0.9-1.1c0.2-0.4,0.3-0.9,0.3-1.4c0-0.3,0-0.6-0.1-0.9
				c-0.1-0.3-0.2-0.5-0.4-0.8s-0.4-0.4-0.6-0.5C33.3,11.1,33,11,32.7,11c-0.2,0-0.4,0-0.6,0.1c-0.2,0.1-0.3,0.1-0.4,0.2
				c-0.1,0.1-0.2,0.2-0.2,0.3c0,0.1-0.1,0.2-0.1,0.3c0,0.2,0,0.5,0.1,0.6c0.1,0.2,0.2,0.3,0.4,0.5c0.2,0.1,0.4,0.3,0.6,0.4
				c0.2,0.1,0.4,0.2,0.7,0.4c0.1,0,0.1,0.1,0.1,0.1c0,0.1,0,0.1,0,0.2c0,0.1,0,0.2-0.1,0.3c-0.1,0.1-0.1,0.1-0.3,0.1H27.6z
				 M26.8,11.6c0,0.1,0,0.2,0.1,0.3c0,0.1,0.1,0.2,0.2,0.3c0.1,0.1,0.2,0.1,0.3,0.2c0.1,0,0.2,0.1,0.3,0.1c0.1,0,0.2,0,0.3-0.1
				c0.1,0,0.2-0.1,0.3-0.2c0.1-0.1,0.1-0.2,0.2-0.3c0-0.1,0.1-0.2,0.1-0.3c0-0.1,0-0.2-0.1-0.3c0-0.1-0.1-0.2-0.2-0.3
				c-0.1-0.1-0.2-0.1-0.3-0.2c-0.1,0-0.2-0.1-0.3-0.1c-0.1,0-0.2,0-0.3,0.1S27.1,10.9,27,11c-0.1,0.1-0.1,0.2-0.2,0.3
				C26.8,11.3,26.8,11.5,26.8,11.6z"/>
		</g>
	</g>
	<g>
		<g>
			<path d="M52.5,50.4h-1v-3.5h-1.3c-0.3,1-0.9,1.9-1.8,2.5c-0.9,0.7-1.8,1-2.9,1h-1c-1.1,0-2.1-0.2-3-0.6c-1.1-0.5-1.6-1.3-1.6-2.3
				c0-0.2,0.1-0.4,0.1-0.6c0.1-0.2,0.2-0.4,0.3-0.5c0.1-0.1,0.3-0.3,0.5-0.3c0.2-0.1,0.4-0.1,0.6-0.1h8l0.1-0.5
				c0-0.9-0.3-1.6-0.9-2.2c-0.3-0.3-0.6-0.5-0.9-0.6c-0.3-0.1-0.7-0.2-1.1-0.2c0.1,0,0.2,0.1,0.3,0.2c0.1,0.1,0.2,0.2,0.3,0.3
				c0.1,0.1,0.1,0.2,0.2,0.3c0,0.1,0.1,0.2,0.1,0.3c0,0.3-0.1,0.5-0.2,0.8c-0.1,0.2-0.3,0.4-0.4,0.6c-0.2,0.2-0.4,0.3-0.6,0.4
				c-0.2,0.1-0.5,0.2-0.8,0.2c-0.6,0-1-0.2-1.4-0.6c-0.4-0.4-0.6-0.9-0.6-1.4c0-0.5,0.2-1,0.6-1.4c0.4-0.4,0.9-0.6,1.4-0.6h1
				c1.1,0,2.1,0.4,2.9,1.2c0.2,0.2,0.3,0.4,0.5,0.6c0.1,0.2,0.3,0.5,0.4,0.7c0.1,0.2,0.2,0.5,0.2,0.8c0.1,0.3,0.1,0.5,0,0.8l0,0.5h1
				v-4.5h1V50.4z M49.2,46.9h-7.7c-0.3,0-0.4,0.2-0.5,0.5c0,1.3,1.2,2,3.5,2h1c0.8,0,1.6-0.2,2.2-0.7C48.4,48.2,48.9,47.6,49.2,46.9
				z M45.5,42.3c-0.1,0-0.3,0-0.4,0.1c-0.1,0.1-0.2,0.1-0.3,0.2c-0.1,0.1-0.2,0.2-0.2,0.3c-0.1,0.1-0.1,0.3-0.1,0.4
				c0,0.2,0.1,0.5,0.3,0.7c0.2,0.2,0.4,0.3,0.7,0.3c0.3,0,0.5-0.1,0.7-0.3c0.2-0.2,0.3-0.4,0.3-0.7c0-0.1,0-0.3-0.1-0.4
				c-0.1-0.1-0.1-0.2-0.2-0.3c-0.1-0.1-0.2-0.2-0.3-0.2C45.7,42.3,45.6,42.3,45.5,42.3z"/>
		</g>
		<g>
			<path class="st0" d="M55.5,33.6H36.9c-1.6,0-3,1.3-3,3v18.6c0,1.6,1.3,3,3,3h18.6c1.6,0,3-1.3,3-3V36.6
				C58.5,34.9,57.1,33.6,55.5,33.6z"/>
		</g>
	</g>
	<g>
		<path class="st0" d="M23.1,33.6H4.5c-1.6,0-3,1.3-3,3v18.6c0,1.6,1.3,3,3,3h18.6c1.6,0,3-1.3,3-3V36.6
			C26,34.9,24.7,33.6,23.1,33.6z"/>
		<g>
			<path d="M9.8,42.5L9.8,42.5c0.7-0.5,1.4-0.8,1.9-0.8c0.7,0,1.3,0.3,1.8,0.9c0.4,0.5,0.5,1,0.5,1.5c0,0.5-0.2,0.8-0.4,1.1
				c0.2,0.2,0.4,0.3,0.5,0.5c0.2,0.2,0.5,0.3,1,0.3c0.5,0,0.9-0.1,1.3-0.4v-2.9h-1.5l-0.4-0.8l0.1-0.1h3.9l0.4,0.8l-0.1,0.1h-1.4
				l0,7.3L17.3,50l-0.9-0.2l0-2.9c-0.2,0.1-0.4,0.1-0.7,0.1c-0.4,0-0.9-0.1-1.2-0.4l0,0c0.1,0.2,0.1,0.5,0.1,0.8
				c0,1.1-0.9,1.9-2,1.9c-1.7,0-2.9-1.4-3.9-3.4v-0.1l0.5-0.3c0.9,1.8,1.9,2.7,3,2.7c0.8,0,1.6-0.6,1.6-1.4c0-0.7-0.4-1.1-1.1-1.1
				c-0.4,0-0.9,0.1-1.5,0.4l-0.6-1l0-0.1c0.8-0.3,1.5-0.5,2-0.5c0.4-0.3,0.6-0.6,0.6-1.1c0-0.5-0.4-0.8-0.9-0.8s-1.2,0.3-1.9,0.7
				L9.8,42.5z"/>
		</g>
	</g>
</g>
</svg>
