<?xml version="1.0" encoding="iso-8859-1"?>
<!-- Generator: Adobe Illustrator 19.0.0, SVG Export Plug-In . SVG Version: 6.00 Build 0)  -->
<svg version="1.1" id="Capa_1" xmlns="http://www.w3.org/2000/svg" xmlns:xlink="http://www.w3.org/1999/xlink" x="0px" y="0px"
	 viewBox="0 0 490.656 490.656" style="enable-background:new 0 0 490.656 490.656;" xml:space="preserve">
<g>
	<g>
		<path d="M483.632,144.563c-69.376-52.715-151.765-80.576-238.293-80.576c-33.685,0-67.435,4.416-100.309,13.141
			c-5.675,1.493-9.067,7.339-7.573,13.035c1.493,5.675,7.275,9.067,13.035,7.573c31.104-8.235,63.019-12.416,94.848-12.416
			c78.293,0,153.024,24.128,216.789,69.888L354.864,296.584c-3.563,4.715-2.645,11.392,2.069,14.955
			c1.92,1.472,4.203,2.176,6.443,2.176c3.221,0,6.4-1.472,8.512-4.224L485.68,159.496
			C489.243,154.803,488.325,148.125,483.632,144.563z"/>
	</g>
</g>
<g>
	<g>
		<path d="M344.901,329.8L110.192,95.091c-3.029-3.029-7.595-3.989-11.541-2.347c-33.216,13.419-64.043,30.869-91.605,51.819
			c-4.693,3.563-5.611,10.24-2.048,14.933l231.851,305.6c2.005,2.667,5.163,4.224,8.491,4.224s6.485-1.557,8.512-4.203
			l92.011-121.323C349.083,339.549,348.677,333.576,344.901,329.8z M245.339,441.011L28.549,155.208
			c21.973-15.68,45.995-29.099,71.595-40l223.083,223.104L245.339,441.011z"/>
	</g>
</g>
<g>
	<g>
		<path d="M487.536,472.456L18.203,3.123c-4.16-4.16-10.923-4.16-15.083,0c-4.16,4.16-4.16,10.923,0,15.083l469.333,469.333
			c2.091,2.069,4.821,3.115,7.552,3.115s5.461-1.045,7.531-3.115C491.696,483.379,491.696,476.616,487.536,472.456z"/>
	</g>
</g>
<g>
</g>
<g>
</g>
<g>
</g>
<g>
</g>
<g>
</g>
<g>
</g>
<g>
</g>
<g>
</g>
<g>
</g>
<g>
</g>
<g>
</g>
<g>
</g>
<g>
</g>
<g>
</g>
<g>
</g>
</svg>
